<svg xmlns="http://www.w3.org/2000/svg" viewBox="0 0 400 300" width="406" height="306" class="illustration styles_illustrationTablet__1DWOa"><g id="_576_brainstorming_session_flatline" data-name="#576_brainstorming_session_flatline"><path d="M156.76,179.89s-4.16-4.13-4.55-5.29-1.19-8.88-2.78-7.89-1.25,7.19-1.25,7.19-5.85-8.86-7.45-8-4,5.4-3.77,7,10.69,13.27,14.26,15.44Z" fill="#fff"></path><path d="M151.22,188.79a.48.48,0,0,1-.26-.07c-3.42-2.09-14.26-13.91-14.5-15.8s2.34-6.6,4-7.49c1.52-.79,4.81,3.41,7.14,6.78,0-2.05.26-5.14,1.53-5.93a1,1,0,0,1,.93-.08c1.08.49,1.63,3.11,2.23,6.48a15.93,15.93,0,0,0,.35,1.76c.26.77,2.86,3.53,4.43,5.09a.5.5,0,0,1,.07.63l-5.55,8.41A.47.47,0,0,1,151.22,188.79ZM141,166.31h0c-1.43.75-3.67,5.17-3.51,6.47s9.74,12.09,13.63,14.81l5-7.65c-1.1-1.1-4-4.09-4.39-5.19a16.58,16.58,0,0,1-.39-1.9c-.24-1.36-1-5.49-1.65-5.74-.91.59-1.14,4.3-1,6.76a.5.5,0,0,1-.92.3C145,169.91,141.85,166.31,141,166.31Z" fill="#231f20"></path><path d="M201.2,152.46S173,190,169,186.18s-14-10.11-14-10.11l-8.19,11.38s24.47,22.8,32.7,19.55,31.94-34.1,31.94-34.1Z" fill="#68e1fd"></path><path d="M184.28,173.45c-2-1.25-4.61-2.52-6.29-4.14-2.68-2.59-4.43-6.46-6.93-9.32a2.14,2.14,0,0,0-.76,2.14,8.06,8.06,0,0,0,.91,2.22,18.5,18.5,0,0,1,1.64,4.74,58.13,58.13,0,0,0-14.35-2.26,4.74,4.74,0,0,0,.69,4.29,14.13,14.13,0,0,0,3.23,3.13,27.59,27.59,0,0,0,4.76,3.21c3.8,1.88,8.32,2,11.5,5,1.44,1.37,4.15,2.7,5.64,1C184.94,182.74,184.59,173.65,184.28,173.45Z" fill="#fff"></path><path d="M182.48,184.76a6.67,6.67,0,0,1-4.15-1.93c-1.9-1.8-4.3-2.52-6.84-3.28a28.61,28.61,0,0,1-4.53-1.64,28,28,0,0,1-4.85-3.27,14.26,14.26,0,0,1-3.34-3.24,5.22,5.22,0,0,1-.73-4.76.52.52,0,0,1,.48-.31,58.46,58.46,0,0,1,13.66,2,17.74,17.74,0,0,0-1.42-3.8l-.15-.31a6.85,6.85,0,0,1-.8-2.06,2.58,2.58,0,0,1,1-2.64.5.5,0,0,1,.65.09,38.41,38.41,0,0,1,3.07,4.26,29.49,29.49,0,0,0,3.83,5,23.24,23.24,0,0,0,4.43,3c.61.36,1.22.71,1.77,1.06h0c.23.14.29.4.34.76.19,1.25.6,9.08-.18,10a2.8,2.8,0,0,1-2,1Zm-23.62-17.42a4.4,4.4,0,0,0,.74,3.5,13.57,13.57,0,0,0,3.13,3A27.82,27.82,0,0,0,167.4,177a28.21,28.21,0,0,0,4.38,1.57c2.54.76,5.17,1.55,7.24,3.52a5.62,5.62,0,0,0,3.58,1.65,1.84,1.84,0,0,0,1.35-.65c.37-.72.22-8-.08-9.32-.51-.32-1.05-.63-1.61-1a24.09,24.09,0,0,1-4.62-3.16,29.6,29.6,0,0,1-4-5.2,40.74,40.74,0,0,0-2.66-3.75,1.92,1.92,0,0,0-.23,1.33,6.46,6.46,0,0,0,.7,1.76l.17.31a19.12,19.12,0,0,1,1.68,4.87.49.49,0,0,1-.15.47.48.48,0,0,1-.47.11A57.14,57.14,0,0,0,158.86,167.34Z" fill="#231f20"></path><path d="M230.41,91.77A13.14,13.14,0,0,1,241,101.22c1,3.88.34,8.48,3,11.48a7.35,7.35,0,0,0,6.48,2.22,9.79,9.79,0,0,0,6-3.55,12.43,12.43,0,0,1-5.72,12.52,15.25,15.25,0,0,1-12.41,1A29,29,0,0,1,227.63,118a27.86,27.86,0,0,1-9.11-17.39C217.73,94.12,224.69,90.94,230.41,91.77Z" fill="#fff"></path><path d="M243.73,126.23a17.8,17.8,0,0,1-5.54-.91,29.46,29.46,0,0,1-10.91-7,28.41,28.41,0,0,1-9.26-17.7,7.43,7.43,0,0,1,2.22-6.43,12.5,12.5,0,0,1,10.25-2.94h0a13.68,13.68,0,0,1,11,9.82,28.76,28.76,0,0,1,.65,4.14c.3,2.71.57,5.27,2.24,7.14a6.88,6.88,0,0,0,6,2,9.29,9.29,0,0,0,5.69-3.37.49.49,0,0,1,.51-.16.48.48,0,0,1,.36.39,12.84,12.84,0,0,1-6,13A14.24,14.24,0,0,1,243.73,126.23ZM228.6,92.14a11.23,11.23,0,0,0-7.66,2.79,6.44,6.44,0,0,0-1.92,5.59A27.34,27.34,0,0,0,228,117.61a28.64,28.64,0,0,0,10.52,6.76,14.83,14.83,0,0,0,12-.91,12,12,0,0,0,5.62-10.95,10.1,10.1,0,0,1-5.57,2.9,7.84,7.84,0,0,1-6.93-2.37c-1.88-2.12-2.19-5-2.48-7.71a29.1,29.1,0,0,0-.63-4,12.26,12.26,0,0,0-11.9-9.2Z" fill="#231f20"></path><path d="M224.82,101.86a10.83,10.83,0,0,0-5-4,9.08,9.08,0,0,0-4.77-.1,4.12,4.12,0,0,0-2.84,1.72,4.45,4.45,0,0,0,.07,3.54c1.32,3.94,5.92,12.79,11,12.57C230.37,115.34,227.24,105,224.82,101.86Z" fill="#231f20"></path><path d="M223.1,116.15c-5.24,0-9.84-8.66-11.26-12.92a4.91,4.91,0,0,1,0-3.94,4.48,4.48,0,0,1,3.17-2,9.68,9.68,0,0,1,5,.12,11,11,0,0,1,5.2,4.11h0c1.73,2.26,4,8.38,2.35,12a4.56,4.56,0,0,1-4.25,2.58ZM217.4,98a10.15,10.15,0,0,0-2.21.26,3.62,3.62,0,0,0-2.52,1.47,4.07,4.07,0,0,0,.12,3.15c1.31,3.91,5.74,12.44,10.47,12.22a3.53,3.53,0,0,0,3.39-2c1.45-3.09-.62-8.87-2.23-11h0a10.14,10.14,0,0,0-4.72-3.77A7.39,7.39,0,0,0,217.4,98Z" fill="#231f20"></path><polygon points="249.79 228.81 254.99 258.99 199.31 254.85 198.56 218.19 249.79 228.81" fill="#231f20"></polygon><path d="M255,259.49h0l-55.69-4.14a.49.49,0,0,1-.46-.49l-.75-36.66a.55.55,0,0,1,.18-.4.53.53,0,0,1,.42-.1l51.23,10.62a.49.49,0,0,1,.39.4l5.21,30.19a.5.5,0,0,1-.5.58Zm-55.19-5.1,54.59,4.06-5-29.22-50.27-10.42Z" fill="#231f20"></path><path d="M227.24,147.47s12.83,6.05,20.1,23.47c3.87,9.27,5.15,61.11,5.15,61.11s-37.58,8.38-55.53-1.57c0,0,.67-24.17-1.25-40.6-1-8.39-1.21-26.18,2.85-33.87C204.05,145.62,217.27,148,227.24,147.47Z" fill="#68e1fd"></path><path d="M197,206.64a.5.5,0,0,1-.5-.48c0-.24-.77-23.84-1.54-30-.79-6.34,3-15.92,3.14-16.32a.5.5,0,0,1,.65-.28.51.51,0,0,1,.28.65c0,.09-3.84,9.74-3.08,15.83s1.54,29.88,1.55,30.11a.5.5,0,0,1-.48.52Z" fill="#231f20"></path><path d="M223.52,105.9c-.36-.61-.72-1.2-1.09-1.77-3.38-5.25-9.64-5.86-15.11-3.77-1.09.42-2.26,1.12-2.42,2.28-2.21-1-4.91,0-6.55,1.81-5.33,5.73-5.16,14.82-3.37,21.9a12.8,12.8,0,0,0,1.93,4.63,10.86,10.86,0,0,0,3.78,3c9.94,5.15,24.7,1.13,27-11C228.71,117.29,226.44,111,223.52,105.9Z" fill="#fff"></path><path d="M210,136.62a20.85,20.85,0,0,1-9.53-2.24,11.06,11.06,0,0,1-4-3.1,13.22,13.22,0,0,1-2-4.81c-1.12-4.4-3-15.4,3.48-22.36,1.51-1.62,4.15-2.9,6.59-2.13a4.22,4.22,0,0,1,2.57-2.09c5.1-1.94,11.91-1.93,15.71,4,.38.58.74,1.18,1.1,1.8h0c2.1,3.63,5.44,10.72,4.19,17.4a15.87,15.87,0,0,1-9,11.51A21,21,0,0,1,210,136.62Zm-7-33.88a6.29,6.29,0,0,0-4.33,2.05c-6.15,6.61-4.32,17.19-3.24,21.44a12,12,0,0,0,1.84,4.45,10.16,10.16,0,0,0,3.61,2.82,20.51,20.51,0,0,0,17.82.17,15,15,0,0,0,8.42-10.8c1.19-6.36-2-13.21-4.07-16.72-.35-.6-.71-1.19-1.08-1.75-3.47-5.39-9.77-5.38-14.51-3.57-.89.34-2,.94-2.11,1.88a.47.47,0,0,1-.25.36.48.48,0,0,1-.45,0A4,4,0,0,0,203,102.74Z" fill="#231f20"></path><path d="M206.79,137.13l.81,9.85s2.89,2.21,9.2.05,6.58-3.84,6.58-3.84L221.6,125c-.08-.78-3.1-3.31-3.72-3.85a26.15,26.15,0,0,0-5.64-3.73,23.17,23.17,0,0,1-2.75-1.44,7.93,7.93,0,0,1-3.39-6.87,7.73,7.73,0,0,1-2,6c-1,1.09-2.38,1.87-3.32,3-1.71,2.14-1,4-.77,6.41.33,2.74-.06,5.45.55,8.2C201.57,137.58,206.7,137.07,206.79,137.13Z" fill="#fff"></path><path d="M211.67,148.48a7.49,7.49,0,0,1-4.37-1.1.49.49,0,0,1-.2-.36l-.77-9.4c-3.42-.11-5.65-1.79-6.31-4.74a23.2,23.2,0,0,1-.4-4.87,32.09,32.09,0,0,0-.15-3.38q-.08-.54-.15-1c-.29-1.93-.56-3.75,1-5.74a12.44,12.44,0,0,1,1.91-1.8,13.81,13.81,0,0,0,1.44-1.28,7.25,7.25,0,0,0,1.94-4.49,8.15,8.15,0,0,1,0-1.21.5.5,0,0,1,.49-.47h0a.5.5,0,0,1,.5.45,8.12,8.12,0,0,1,0,1.21,7.39,7.39,0,0,0,3.14,5.29,14.71,14.71,0,0,0,2,1.1l.65.31a27,27,0,0,1,5.74,3.8l.19.17c3,2.56,3.65,3.46,3.71,4,0,0,1.78,18.21,1.78,18.21v.12c-.06.33-.64,2.09-6.91,4.24A16.39,16.39,0,0,1,211.67,148.48Zm-3.59-1.79c.69.39,3.46,1.62,8.56-.13s6.09-3.16,6.23-3.44c-.15-1.53-1.76-18-1.77-18.09s-.46-.87-3.36-3.36l-.19-.16a25.4,25.4,0,0,0-5.53-3.66l-.64-.31a15.77,15.77,0,0,1-2.17-1.17,8.28,8.28,0,0,1-3-3.83,8.26,8.26,0,0,1-1.76,2.91,16.19,16.19,0,0,1-1.53,1.36,11.72,11.72,0,0,0-1.77,1.66c-1.31,1.64-1.09,3.11-.81,5q.08.52.15,1.08a31.91,31.91,0,0,1,.16,3.49,21.89,21.89,0,0,0,.38,4.66c.57,2.57,2.51,3.94,5.62,4a.69.69,0,0,1,.45.09.47.47,0,0,1,.22.37Z" fill="#231f20"></path><path d="M217.78,125a4.24,4.24,0,0,1,1.22-2.38,7.34,7.34,0,0,1,2.16-1.35,3,3,0,0,1,1.34-.38,2.62,2.62,0,0,1,.95.25,3.29,3.29,0,0,1,1.71,1.49,3.9,3.9,0,0,1,.25,1.83,7.53,7.53,0,0,1-.31,2,5.16,5.16,0,0,1-2.57,3,5.21,5.21,0,0,1-3.95.29" fill="#fff"></path><path d="M220.21,130.55a5.73,5.73,0,0,1-1.79-.29.5.5,0,0,1,.32-.95,4.63,4.63,0,0,0,5.88-3,6.75,6.75,0,0,0,.29-1.88,3.42,3.42,0,0,0-.2-1.6,2.85,2.85,0,0,0-1.46-1.24,2.38,2.38,0,0,0-.76-.21,2.88,2.88,0,0,0-1.12.33,6.9,6.9,0,0,0-2,1.25,3.75,3.75,0,0,0-1.07,2.11.5.5,0,0,1-1-.15,4.71,4.71,0,0,1,1.36-2.67,8.1,8.1,0,0,1,2.3-1.45,3.7,3.7,0,0,1,1.56-.42,3.07,3.07,0,0,1,1.14.29,3.76,3.76,0,0,1,2,1.73,4.36,4.36,0,0,1,.3,2.08,8,8,0,0,1-.33,2.14,5.61,5.61,0,0,1-5.37,3.91Z" fill="#231f20"></path><path d="M207.9,120.93s-3.1,5.26-2.24,6.09,3.08.12,3.08.12" fill="#fff"></path><path d="M207,127.93a2.38,2.38,0,0,1-1.69-.55c-.94-.91.66-4.15,2.16-6.7a.5.5,0,0,1,.86.5c-1.45,2.47-2.52,5-2.3,5.51.46.45,1.92.18,2.56,0a.5.5,0,0,1,.63.32.51.51,0,0,1-.33.63A6.69,6.69,0,0,1,207,127.93Z" fill="#231f20"></path><ellipse cx="212.07" cy="119.4" rx="0.84" ry="1.18" transform="translate(-14.87 31.5) rotate(-8.21)" fill="#231f20"></ellipse><ellipse cx="204.24" cy="120.22" rx="0.84" ry="1.18" transform="translate(-1.37 2.35) rotate(-0.66)" fill="#231f20"></ellipse><path d="M206.79,137.13s6.25.92,9.69-1.44c0,0-3.32,8.58-9.13,8.19Z" fill="#231f20"></path><path d="M207.74,144.4l-.43,0a.49.49,0,0,1-.46-.46l-.55-6.75a.46.46,0,0,1,.15-.4.53.53,0,0,1,.42-.13c.06,0,6.09.86,9.33-1.36a.48.48,0,0,1,.59,0,.51.51,0,0,1,.16.57C216.81,136.23,213.58,144.4,207.74,144.4Zm-.4-6.7.47,5.69c3.8-.06,6.46-4.32,7.59-6.55A18.09,18.09,0,0,1,207.34,137.7Z" fill="#231f20"></path><polygon points="203.23 147.03 202.27 151.51 227.24 147.47 225.31 142.55 203.23 147.03" fill="#fff"></polygon><path d="M202.27,152a.48.48,0,0,1-.36-.15.5.5,0,0,1-.13-.45l1-4.49a.52.52,0,0,1,.39-.38l22.08-4.48a.51.51,0,0,1,.57.3l1.93,4.93a.52.52,0,0,1-.39.68l-25,4Zm1.38-4.56-.74,3.45,23.64-3.82-1.55-4Z" fill="#231f20"></path><path d="M206.45,134.85a1.54,1.54,0,0,1-.55-.11c-2.18-.85-1.25-4.83-1.13-5.28a.49.49,0,0,1,.51-.38c4.11.19,4.15.28,4.29.63s-.78,3.45-1.85,4.53A1.8,1.8,0,0,1,206.45,134.85Zm-.8-4.75c-.22,1.14-.41,3.31.61,3.71a.52.52,0,0,0,.49-.07c.84-.52,1.54-2.53,1.78-3.45C207.93,130.23,206.77,130.16,205.65,130.1Z" fill="#231f20"></path><path d="M236.09,169.41s-9.94,14.76-11.87,17.69-41.57-17.37-41.57-17.37l-6,13.34s56.32,37.57,59.1,31,8.57-33,8.57-33" fill="#68e1fd"></path><path d="M220.18,186.67c-6.31,0-30.86-12.25-33.78-13.72a.5.5,0,0,1-.22-.67.5.5,0,0,1,.67-.22c12,6,30.85,14.58,33.88,13.55,3.38-1.16,10.81-16.84,13.38-22.79a.5.5,0,0,1,.92.4c-1,2.23-9.56,21.82-14,23.33A2.75,2.75,0,0,1,220.18,186.67Z" fill="#231f20"></path><path d="M225.5,209.67c-13,0-46.66-24.43-48.19-25.55a.5.5,0,1,1,.59-.81c.4.29,40.07,29.11,49.82,25,3.34-1.41,14.73-19.45,18.84-26.28a.5.5,0,0,1,.68-.17.49.49,0,0,1,.17.69c-.61,1-15,24.86-19.3,26.68A6.7,6.7,0,0,1,225.5,209.67Z" fill="#231f20"></path><path d="M148.18,180.39a.5.5,0,0,1-.46-.31c-1.6-3.8,0-6.34,0-6.45a.5.5,0,1,1,.84.54c-.06.1-1.34,2.23,0,5.52a.5.5,0,0,1-.27.66A.43.43,0,0,1,148.18,180.39Z" fill="#231f20"></path><path d="M80.43,149.45H56.78A19.18,19.18,0,0,0,37.9,172l16.93,94.06h62.63L99.31,165.24A19.19,19.19,0,0,0,80.43,149.45Z" fill="#fff"></path><path d="M117.46,266.59H54.83a.5.5,0,0,1-.5-.41L37.4,172.12A19.7,19.7,0,0,1,56.78,149H80.43a19.67,19.67,0,0,1,19.37,16.2L118,266a.5.5,0,0,1-.49.59Zm-62.22-1h61.62l-18-100.26A18.66,18.66,0,0,0,80.43,150H56.78a18.68,18.68,0,0,0-18.39,22Z" fill="#231f20"></path><path d="M126.1,209s1.88,26.17,3.77,26.8,21.07,2.52,21.07,2.52l-2,10.06s-37,1.89-38.85-4.87S106,204,106,204Z" fill="#fff"></path><path d="M137.63,249.11c-11.24,0-26.76-.85-28.06-5.51-1.88-6.74-4-38.24-4.1-39.58a.46.46,0,0,1,.17-.41.51.51,0,0,1,.44-.11l20.14,5a.48.48,0,0,1,.37.45c.89,12.25,2.43,25.47,3.49,26.38,1.45.48,15.59,1.94,20.91,2.47a.49.49,0,0,1,.36.2.51.51,0,0,1,.08.4l-2,10.06a.51.51,0,0,1-.46.4C147.66,248.9,143.16,249.11,137.63,249.11Zm-31.12-44.47c.33,4.74,2.32,32.59,4,38.69,1.45,5.17,27.51,5,38,4.53l1.85-9.14c-3.22-.32-18.87-1.9-20.63-2.49s-3.36-16.93-4.09-26.87Z" fill="#231f20"></path><path d="M108.72,170.89c.27.65,11.79,6.28,17,20.44s5.43,21.94,5.43,21.94H101.64Z" fill="#68e1fd"></path><path d="M83.69,168.78s-10.81,3.06-13,8.09,2.27,72.73,2.27,72.73l50.64,1.57s-7.86-32.4-5.35-40.89.32-25.79-.63-30.51-10.38-9.12-13.52-11S83.69,168.78,83.69,168.78Z" fill="#68e1fd"></path><path d="M100.18,251h-.08a.5.5,0,0,1-.41-.57c6.71-41.37,3.24-70.75,3.2-71a.5.5,0,0,1,.44-.55.48.48,0,0,1,.55.43c0,.29,3.53,29.8-3.2,71.32A.51.51,0,0,1,100.18,251Z" fill="#231f20"></path><path d="M86.8,151.84c-.11-.22-.24-.53-.4-1-.49-1.26-1.49-2-2.09-3.23-1.15-2.23-.74-4.36-.86-6.74a17.43,17.43,0,0,1,1.69-8.65,6.47,6.47,0,0,1,2.4-2.91,3,3,0,0,1,3.53.27,3.44,3.44,0,0,1,.69-3.66,8.47,8.47,0,0,1,3.31-2.08,16.22,16.22,0,0,1,6-1.42,7.8,7.8,0,0,1,5.66,2.17c1.41,1.47,2,3.52,3,5.27s3,3.34,4.94,2.78c1.58-.44,2.48-2.08,3.08-3.61a8.57,8.57,0,0,1-1.67,7.89,9.25,9.25,0,0,0,3.56-2.34,6.79,6.79,0,0,1-1.81,4.5,13.33,13.33,0,0,1-4.62,2.79c-.93.4-1.83.56-2.2,1.45s.07,2.2-.31,3.21a13.66,13.66,0,0,1-2.74,4.51,12.79,12.79,0,0,1-7.14,3.69,22.74,22.74,0,0,1-8.14-.21,11.52,11.52,0,0,1-4-1.38C87.42,152.4,87.22,152.68,86.8,151.84Z" fill="#fff"></path><path d="M97.63,155.57a27.47,27.47,0,0,1-5-.49,12,12,0,0,1-4.23-1.45,7.06,7.06,0,0,0-1-.52,1.87,1.87,0,0,1-1.1-1h0a9.8,9.8,0,0,1-.42-1,7.19,7.19,0,0,0-1.07-1.69,9.57,9.57,0,0,1-1-1.48,10.38,10.38,0,0,1-.89-5.19c0-.57,0-1.16,0-1.77a18.11,18.11,0,0,1,1.75-8.9,7,7,0,0,1,2.6-3.12,3.82,3.82,0,0,1,3-.37,4.42,4.42,0,0,1,1.09-2.92,9,9,0,0,1,3.51-2.22A17,17,0,0,1,101.1,122h0a8.3,8.3,0,0,1,6,2.33,12.71,12.71,0,0,1,2.14,3.49c.3.63.61,1.28,1,1.88.92,1.56,2.68,3,4.36,2.55,1.11-.32,2-1.37,2.74-3.31a.5.5,0,0,1,.5-.32.5.5,0,0,1,.47.36,9.18,9.18,0,0,1-.67,6.74,8.69,8.69,0,0,0,1.69-1.39.51.51,0,0,1,.57-.13.53.53,0,0,1,.32.48,7.21,7.21,0,0,1-1.94,4.85,13.93,13.93,0,0,1-4.79,2.92l-.59.23c-.73.28-1.15.45-1.35.93a3.54,3.54,0,0,0-.11,1.38,4.54,4.54,0,0,1-.19,1.82,14.09,14.09,0,0,1-2.84,4.68,13.36,13.36,0,0,1-7.43,3.85A18.89,18.89,0,0,1,97.63,155.57Zm-10.37-4c.18.37.23.39.61.56a8.94,8.94,0,0,1,1.09.58,10.88,10.88,0,0,0,3.88,1.31,22,22,0,0,0,7.94.21,12.28,12.28,0,0,0,6.86-3.53,13.14,13.14,0,0,0,2.64-4.34,3.86,3.86,0,0,0,.11-1.43,4.23,4.23,0,0,1,.2-1.8,2.87,2.87,0,0,1,1.94-1.51l.54-.21a13.25,13.25,0,0,0,4.45-2.67A6.37,6.37,0,0,0,119,136a9.69,9.69,0,0,1-2.7,1.51.52.52,0,0,1-.57-.83,8.07,8.07,0,0,0,1.85-5.88,4.74,4.74,0,0,1-2.73,2.44c-2.21.63-4.37-1.06-5.53-3-.38-.64-.69-1.32-1-2a11.75,11.75,0,0,0-2-3.21,7.24,7.24,0,0,0-5.26-2h0a16.08,16.08,0,0,0-5.83,1.37,8.06,8.06,0,0,0-3.12,2,3,3,0,0,0-.62,3.09.51.51,0,0,1-.16.65.53.53,0,0,1-.67-.06,2.45,2.45,0,0,0-2.9-.18,5.82,5.82,0,0,0-2.19,2.69A17,17,0,0,0,84,140.89c0,.62,0,1.23,0,1.83a9.64,9.64,0,0,0,.78,4.71,8.11,8.11,0,0,0,.9,1.32,7.75,7.75,0,0,1,1.21,1.95c.16.41.28.7.38.91Z" fill="#231f20"></path><path d="M107.19,164.83l1,6.48s-1,9.42-8.14,7.77a15.35,15.35,0,0,1-10-8.07l-.91-17.11s5.24-2.86,3.59-14.28A35.23,35.23,0,0,0,111.26,142s2.54,11.77,1.73,17.28A6.07,6.07,0,0,1,107.19,164.83Z" fill="#fff"></path><path d="M101.66,179.79a7.63,7.63,0,0,1-1.73-.21,15.71,15.71,0,0,1-10.3-8.37.48.48,0,0,1,0-.18l-.9-17.1a.5.5,0,0,1,.27-.48s4.89-2.89,3.32-13.76a.5.5,0,0,1,.21-.49.51.51,0,0,1,.52,0,35,35,0,0,0,18.19,2.35.52.52,0,0,1,.58.41c.1.48,2.54,11.91,1.73,17.45a6.57,6.57,0,0,1-5.71,5.93l.91,5.94a.29.29,0,0,1,0,.13c0,.21-.59,5.17-3.71,7.39A5.67,5.67,0,0,1,101.66,179.79Zm-11-8.91a14.93,14.93,0,0,0,9.56,7.69,5,5,0,0,0,4.22-.66c2.57-1.83,3.21-6,3.28-6.6l-1-6.4a.5.5,0,0,1,.12-.41.53.53,0,0,1,.39-.18,5.56,5.56,0,0,0,5.29-5.11c.7-4.74-1.17-14.4-1.63-16.62a36.17,36.17,0,0,1-17.44-2.14c1.13,9.55-2.6,12.94-3.69,13.72Z" fill="#231f20"></path><path d="M103.54,148.9s3.38,6.2,2.36,7.13-3.57,0-3.57,0" fill="#fff"></path><path d="M104.48,157a7.39,7.39,0,0,1-2.31-.43.5.5,0,0,1-.31-.63.51.51,0,0,1,.64-.31c.88.31,2.48.61,3.06.08.32-.48-.83-3.53-2.46-6.52a.5.5,0,0,1,.88-.48c1.33,2.45,3.4,6.7,2.26,7.74A2.56,2.56,0,0,1,104.48,157Z" fill="#231f20"></path><ellipse cx="100.18" cy="147.77" rx="0.7" ry="1.6" transform="translate(-6.12 4.34) rotate(-2.41)" fill="#231f20"></ellipse><ellipse cx="109.33" cy="147.77" rx="0.7" ry="1.6" transform="matrix(1, -0.04, 0.04, 1, -6.11, 4.73)" fill="#231f20"></ellipse><path d="M93.76,151a9.72,9.72,0,0,0-2.45-2.78,3.26,3.26,0,0,0-1.82-.8,2.87,2.87,0,0,0-1.57.46,5.79,5.79,0,0,0-2.74,3.84,4.55,4.55,0,0,0,.09,2.23,5.12,5.12,0,0,0,2.21,2.67,15.26,15.26,0,0,0,3.24,1.4" fill="#fff"></path><path d="M90.72,158.49a.44.44,0,0,1-.16,0A15.47,15.47,0,0,1,87.21,157a5.63,5.63,0,0,1-2.44-2.95,5.15,5.15,0,0,1-.09-2.48,6.34,6.34,0,0,1,3-4.19,3.42,3.42,0,0,1,1.84-.53,3.87,3.87,0,0,1,2.12.91,10.15,10.15,0,0,1,2.57,2.93.52.52,0,0,1-.89.52A9.24,9.24,0,0,0,91,148.59a2.89,2.89,0,0,0-1.53-.7,2.39,2.39,0,0,0-1.29.4,5.26,5.26,0,0,0-2.49,3.49,4.1,4.1,0,0,0,.07,2,4.59,4.59,0,0,0,2,2.38,15,15,0,0,0,3.13,1.35.51.51,0,0,1,.32.66A.51.51,0,0,1,90.72,158.49Z" fill="#231f20"></path><path d="M107.19,164.83a19.47,19.47,0,0,1-11.94-2s6.09,9.36,12.88,8Z" fill="#231f20"></path><path d="M106.79,171.53c-6.42,0-11.72-8-12-8.39a.51.51,0,0,1,0-.61.49.49,0,0,1,.59-.11,19.05,19.05,0,0,0,11.62,1.92.55.55,0,0,1,.39.08.51.51,0,0,1,.21.34l.93,6.07a.51.51,0,0,1-.4.57A7.76,7.76,0,0,1,106.79,171.53Zm-10-7.42c2,2.44,6.21,6.91,10.77,6.38l-.78-5.08A20.12,20.12,0,0,1,96.79,164.11Z" fill="#231f20"></path><path d="M98.16,153.52a5.75,5.75,0,1,1,5.74-5.75A5.75,5.75,0,0,1,98.16,153.52Zm0-10.46a4.72,4.72,0,1,0,4.71,4.71A4.72,4.72,0,0,0,98.16,143.06Z" fill="#231f20"></path><path d="M109.44,153.52a5.75,5.75,0,1,1,5.75-5.75A5.75,5.75,0,0,1,109.44,153.52Zm0-10.46a4.72,4.72,0,1,0,4.71,4.71A4.72,4.72,0,0,0,109.44,143.06Z" fill="#231f20"></path><path d="M104.21,159.44l-3-1.46s-.78,2.48.47,3S104.21,159.44,104.21,159.44Z" fill="#231f20"></path><path d="M102.07,161.58a1.65,1.65,0,0,1-.63-.13c-1.62-.68-.84-3.32-.75-3.62a.54.54,0,0,1,.28-.31.51.51,0,0,1,.42,0l3,1.46a.49.49,0,0,1,.26.32.51.51,0,0,1,0,.4C104.5,159.93,103.4,161.58,102.07,161.58Zm-.56-2.88c-.13.71-.16,1.63.32,1.83s1.19-.39,1.62-.9Z" fill="#231f20"></path><rect x="104.74" y="245.54" width="68.4" height="4.31" transform="translate(277.88 495.4) rotate(-180)" fill="#fff"></rect><path d="M173.14,250.35h-68.4a.5.5,0,0,1-.5-.5v-4.31a.51.51,0,0,1,.5-.5h68.4a.51.51,0,0,1,.5.5v4.31A.5.5,0,0,1,173.14,250.35Zm-67.9-1h67.4V246h-67.4Z" fill="#231f20"></path><path d="M64.13,208.39s-4.72,37-2.12,40,49.42-3.71,54.38-3.95,14.74,2.77,14.5-2.42-12.82-5.58-16.12-3.93-35.54-1-35.54-1l.94-28.71Z" fill="#fff"></path><path d="M67.55,249.72c-3.35,0-5.36-.31-5.93-1-2.66-3.14,1.53-36.61,2-40.41a.51.51,0,0,1,.5-.44h16a.51.51,0,0,1,.36.15.5.5,0,0,1,.14.37l-.93,28.23c9.27.75,32.25,2.31,34.81,1s10.46-1.42,14.45.91a4.23,4.23,0,0,1,2.39,3.45,3,3,0,0,1-.88,2.42c-1.71,1.62-5.55,1.21-9.27.82a35.26,35.26,0,0,0-4.83-.3c-1.21.06-5.09.53-10,1.12C88,248.32,74.72,249.72,67.55,249.72Zm-3-40.83c-1.87,14.78-4,37.1-2.18,39.21s31.3-1.48,43.9-3c5.13-.62,8.83-1.07,10.07-1.13a35.67,35.67,0,0,1,5,.31c3.33.35,7.1.74,8.48-.56a2,2,0,0,0,.56-1.65,3.24,3.24,0,0,0-1.9-2.62c-3.55-2.09-11.12-2.07-13.49-.88-3.34,1.66-32.5-.7-35.81-1a.49.49,0,0,1-.46-.51l.92-28.19Z" fill="#231f20"></path><polygon points="140.65 205.75 182.77 205.75 172.87 245.63 130.75 245.63 140.65 205.75" fill="#fff"></polygon><path d="M172.87,246.13H130.75a.52.52,0,0,1-.4-.2.53.53,0,0,1-.09-.42l9.91-39.88a.49.49,0,0,1,.48-.38h42.12a.49.49,0,0,1,.39.19.48.48,0,0,1,.09.43l-9.9,39.88A.49.49,0,0,1,172.87,246.13Zm-41.48-1h41.09l9.65-38.88H141Z" fill="#231f20"></path><path d="M76.22,173.8c-.24.15-4.29,1.28-4.5,1.52-3.85,4.17-6,7.09-7.59,12.47a98.78,98.78,0,0,0-3.54,22.88S76.4,216.34,83.24,213c0,0,4-28.31,0-36.09C81.8,174.14,79.54,171.63,76.22,173.8Z" fill="#68e1fd"></path><path d="M83.75,209.46h-.11a.49.49,0,0,1-.38-.59c.06-.28,5.92-27.59-1.33-33.15a.51.51,0,0,1-.09-.7.5.5,0,0,1,.7-.09c7.75,5.94,1.95,33,1.7,34.15A.5.5,0,0,1,83.75,209.46Z" fill="#231f20"></path><path d="M117.78,213.77h-.08a.5.5,0,0,1-.41-.58c0-.21,3.73-21.65,0-29.9a.5.5,0,1,1,.91-.41c3.81,8.53.19,29.59,0,30.48A.49.49,0,0,1,117.78,213.77Z" fill="#231f20"></path><rect x="31.59" y="249.85" width="271.73" height="6.34" fill="#fff"></rect><path d="M303.32,256.69H31.59a.51.51,0,0,1-.5-.5v-6.34a.51.51,0,0,1,.5-.5H303.32a.5.5,0,0,1,.5.5v6.34A.5.5,0,0,1,303.32,256.69Zm-271.23-1H302.82v-5.34H32.09Z" fill="#231f20"></path><rect x="37.59" y="256.19" width="259.74" height="9.98" fill="#fff"></rect><path d="M297.33,266.67H37.59a.5.5,0,0,1-.5-.5v-10a.5.5,0,0,1,.5-.5H297.33a.5.5,0,0,1,.5.5v10A.5.5,0,0,1,297.33,266.67Zm-259.24-1H296.83v-9H38.09Z" fill="#231f20"></path><path d="M162.77,89.89A29.18,29.18,0,0,1,141.32,118c-.32,11.31-10.47,19.26-11.11,19.75,5.74-6.94,6.28-13.8,5.48-18.81-.69.06-1.38.09-2.08.09H111.17a29.16,29.16,0,1,1,0-58.32h22.44A29.16,29.16,0,0,1,162.77,89.89Z" fill="#fff"></path><path d="M130.21,138.26a.5.5,0,0,1-.39-.82c5.58-6.74,6.08-13.41,5.45-18-.56,0-1.1.06-1.66.06H111.17a29.66,29.66,0,1,1,0-59.32h22.44a29.66,29.66,0,0,1,8.2,58.17c-.55,11.46-10.86,19.43-11.3,19.77A.49.49,0,0,1,130.21,138.26Zm5.48-19.81a.51.51,0,0,1,.5.42,23,23,0,0,1-2.91,15.36c3.13-3.33,7.34-9.11,7.54-16.24a.49.49,0,0,1,.37-.46,28.67,28.67,0,0,0-7.58-56.31H111.17a28.66,28.66,0,1,0,0,57.32h22.44c.69,0,1.36,0,2-.09Z" fill="#231f20"></path><path d="M261.05,97.2a22.43,22.43,0,0,0,16.49,21.63c.25,8.7,8,14.81,8.55,15.19a17.68,17.68,0,0,1-4.22-14.47c.53,0,1.06.07,1.6.07h17.26a22.42,22.42,0,0,0,0-44.84H283.47A22.42,22.42,0,0,0,261.05,97.2Z" fill="#fff"></path><path d="M286.09,134.52a.48.48,0,0,1-.3-.11c-.34-.26-8.27-6.39-8.73-15.2a22.92,22.92,0,0,1,6.41-44.93h17.26a22.92,22.92,0,0,1,0,45.84H283.47c-.39,0-.78,0-1.17,0a17.3,17.3,0,0,0,4.18,13.62.49.49,0,0,1,0,.66A.52.52,0,0,1,286.09,134.52Zm-2.62-59.24a21.93,21.93,0,0,0-5.79,43.07.47.47,0,0,1,.36.46c.15,5,2.83,9.07,5.12,11.69a17.65,17.65,0,0,1-1.78-11,.51.51,0,0,1,.53-.42c.52,0,1,.07,1.56.07h17.26a21.92,21.92,0,1,0,0-43.84Z" fill="#231f20"></path><path d="M195.78,33.83H159.43a29.84,29.84,0,0,0-29.84,29.84h0a29.84,29.84,0,0,0,29.84,29.84h8.65c-.22,7,6,18.25,20.45,36.07,0,0-15.95-19.88-13.22-36.07h20.47a29.84,29.84,0,0,0,29.84-29.84h0A29.84,29.84,0,0,0,195.78,33.83Z" fill="#fff"></path><path d="M188.53,130.08a.48.48,0,0,1-.39-.19h0C174.22,112.7,167.66,101.27,167.57,94h-8.14a30.34,30.34,0,0,1,0-60.68h36.35a30.34,30.34,0,0,1,0,60.68h-20c-2.32,15.67,12.95,35,13.18,35.26h0a.5.5,0,0,1-.08.7A.51.51,0,0,1,188.53,130.08Zm-29.1-95.75a29.34,29.34,0,0,0,0,58.68h8.65a.51.51,0,0,1,.36.15.54.54,0,0,1,.14.36c-.18,5.58,3.91,14,12.75,26-.29-.53-.59-1.07-.88-1.63-3.36-6.45-7.06-15.92-5.63-24.43a.49.49,0,0,1,.49-.41h20.47a29.34,29.34,0,0,0,0-58.68Z" fill="#231f20"></path><path d="M325.57,149.45h23.65A19.19,19.19,0,0,1,368.1,172l-16.93,94.06H288.53l18.16-100.85A19.18,19.18,0,0,1,325.57,149.45Z" fill="#fff"></path><path d="M351.17,266.59H288.53a.49.49,0,0,1-.38-.18A.54.54,0,0,1,288,266l18.15-100.85A19.67,19.67,0,0,1,325.57,149h23.65a19.68,19.68,0,0,1,19.37,23.17l-16.93,94.06A.49.49,0,0,1,351.17,266.59Zm-62-1h61.62l16.85-93.65a18.68,18.68,0,0,0-18.38-22H325.57a18.67,18.67,0,0,0-18.39,15.38Z" fill="#231f20"></path><path d="M335.54,252.5s-1.32,9.63-5.88,13.59h-60.2s18.26-18,24.6-20.55S335.54,252.5,335.54,252.5Z" fill="#231f20"></path><path d="M329.66,266.59h-60.2a.5.5,0,0,1-.47-.31.51.51,0,0,1,.11-.54c.75-.74,18.42-18.08,24.78-20.66s40.35,6.55,41.79,6.94a.5.5,0,0,1,.36.55c0,.4-1.4,9.86-6,13.9A.5.5,0,0,1,329.66,266.59Zm-59-1h58.78c3.72-3.38,5.19-10.84,5.51-12.72-4.05-1.08-35-9.18-40.73-6.86C288.86,248.19,274.4,262,270.69,265.59Z" fill="#231f20"></path><path d="M252.7,236.68c-.08.1-5.72-.3-9.09,1.49s-8.71,4.85-6.83,6.33,18.22.21,19.5-.78S252.7,236.68,252.7,236.68Z" fill="#fff"></path><path d="M242.6,245.65c-3,0-5.45-.22-6.13-.75a1.39,1.39,0,0,1-.58-1.25c.13-1.43,2.44-3.25,7.49-5.93,2.83-1.5,7.11-1.51,8.72-1.52h.48a.27.27,0,0,1,.13,0,.47.47,0,0,1,.38.19c.69.85,4.11,5.2,3.9,7a1.06,1.06,0,0,1-.4.74C255.57,244.9,248.17,245.65,242.6,245.65Zm9.88-8.45h-.38c-1.54,0-5.64,0-8.26,1.41-5.93,3.14-6.9,4.56-7,5.13,0,.1,0,.22.2.37.57.46,3.76.77,9.6.43,5.32-.3,8.87-.91,9.29-1.22S254.88,240.22,252.48,237.2Z" fill="#231f20"></path><path d="M297.51,173.06s-7.79,3.38-19.67,48.93c-1,3.69-29.86,14.59-29.86,14.59l8,6.14s36.24,4.36,44.56-5.15S297.51,173.06,297.51,173.06Z" fill="#68e1fd"></path><path d="M297.51,173.06s-4.22,16.32-1.05,33.75-7.93,40.89-7.93,40.89,25.88,16.41,49.12,3.74c0,0,1.32-61-7.13-71.83S310.19,160.17,297.51,173.06Z" fill="#68e1fd"></path><polygon points="301.12 171.9 303.32 208.39 316.34 169.62 301.12 171.9" fill="#231f20"></polygon><path d="M303.32,208.89h-.06a.5.5,0,0,1-.44-.46l-2.2-36.49a.49.49,0,0,1,.42-.52l15.23-2.28a.5.5,0,0,1,.46.17.52.52,0,0,1,.09.48l-13,38.77A.52.52,0,0,1,303.32,208.89Zm-1.68-36.56,2,33.46,11.94-35.55Z" fill="#231f20"></path><path d="M275.2,236.38s-11.22-2.9-13.6-2-11.22,4.44-10.43,7.79.39,2.91,6.47,2.64,18.88-.25,18.88-.25Z" fill="#fff"></path><path d="M253.72,245.51c-2.1,0-2.41-.5-2.94-2.77l-.1-.43c-.6-2.55,3-5.37,10.74-8.37,2.45-1,12.74,1.66,13.9,2a.49.49,0,0,1,.37.4l1.32,8.21a.52.52,0,0,1-.11.4.52.52,0,0,1-.38.17h0c-.13,0-12.87,0-18.86.25l-1.93.1C254.92,245.47,254.26,245.51,253.72,245.51Zm9.3-10.79a3.61,3.61,0,0,0-1.24.15c-6.88,2.68-10.58,5.3-10.12,7.21l.1.43c.49,2.11.49,2.11,3.91,1.92l2-.1c5.27-.23,15.72-.24,18.31-.25l-1.17-7.29C271.05,235.84,265.65,234.72,263,234.72Z" fill="#231f20"></path><path d="M317.32,181.46s3.43,41.46,0,42.25L271.5,234.17l2.64,11.37s31.29,4.84,49.78-3.08,19.28-52.82,9.77-63.91S318.11,175.65,317.32,181.46Z" fill="#68e1fd"></path><rect x="223" y="245.54" width="49.95" height="4.31" fill="#fff"></rect><path d="M273,250.35H223a.5.5,0,0,1-.5-.5v-4.31a.5.5,0,0,1,.5-.5H273a.5.5,0,0,1,.5.5v4.31A.5.5,0,0,1,273,250.35Zm-49.45-1h48.95V246H223.5Z" fill="#231f20"></path><rect x="184.97" y="222.22" width="49.95" height="4.31" transform="translate(317.26 -63.55) rotate(63.54)" fill="#fff"></rect><path d="M219.15,248.2a.41.41,0,0,1-.16,0,.48.48,0,0,1-.29-.25L196.44,203.2a.5.5,0,0,1,0-.38.48.48,0,0,1,.25-.29l3.86-1.92a.5.5,0,0,1,.67.23l22.26,44.72a.51.51,0,0,1-.23.67l-3.85,1.92A.59.59,0,0,1,219.15,248.2Zm-21.59-45L219.37,247l3-1.48-21.81-43.82Z" fill="#231f20"></path><path d="M273,234.34a.49.49,0,0,1-.48-.39.5.5,0,0,1,.37-.6c15.24-3.42,38.44-9.25,39.88-11.31s3.39-23.66,4.33-37.64a.49.49,0,0,1,.53-.46.5.5,0,0,1,.47.53c-.24,3.59-2.42,35.14-4.51,38.14S277,233.45,273.06,234.33Z" fill="#231f20"></path><path d="M288.89,246.73c-7.48,0-13.07-.45-13.15-.46a.5.5,0,0,1-.45-.54.5.5,0,0,1,.54-.46c.41,0,41.55,3.3,50.87-8.41s9.2-30.78,9.2-31a.5.5,0,0,1,.49-.51.52.52,0,0,1,.51.5c0,.19.18,19.55-9.42,31.61-4.07,5.11-14,8.14-29.61,9C294.73,246.67,291.68,246.73,288.89,246.73Z" fill="#231f20"></path><path d="M294.21,227h0a.52.52,0,0,1-.45-.55,137.39,137.39,0,0,0,.27-18.75c-.54-11.4-.4-27.55-.4-27.71a.51.51,0,0,1,.5-.5h0a.51.51,0,0,1,.5.51c0,.16-.14,16.28.4,27.65a139.58,139.58,0,0,1-.27,18.9A.5.5,0,0,1,294.21,227Z" fill="#231f20"></path><path d="M310.7,266.17a32.49,32.49,0,0,1,17.77-17.66c10.46-4.28,26.39-3.41,26.39-3.41l-3.79,21.07Z" fill="#fff"></path><path d="M351.07,266.67H310.7a.52.52,0,0,1-.41-.21.51.51,0,0,1-.06-.45,33.29,33.29,0,0,1,18-18c10.44-4.27,26.45-3.47,26.61-3.45a.45.45,0,0,1,.36.18.49.49,0,0,1,.1.4l-3.79,21.08A.49.49,0,0,1,351.07,266.67Zm-39.63-1h39.21l3.62-20.1c-2.92-.1-16.48-.33-25.61,3.4A32.52,32.52,0,0,0,311.44,265.67Z" fill="#231f20"></path><path d="M299.5,135.43c-.34,0-1.42,4-1.56,4.34-.94,2.49-2.44,4.72-3.62,7.13a84.79,84.79,0,0,1-9.78,15.47,12.58,12.58,0,0,0,9-4.06l-2.86,7.88a14.14,14.14,0,0,0,11.71-1c6.21-3.57,7.34-10.32,8-16.79L312,134Z" fill="#fff"></path><path d="M295.46,167.51a14.35,14.35,0,0,1-4.9-.85.51.51,0,0,1-.28-.26.5.5,0,0,1,0-.38l2.16-5.94a13.19,13.19,0,0,1-7.87,2.79h0a.5.5,0,0,1-.39-.81,84.33,84.33,0,0,0,9.72-15.38c.45-.91.95-1.81,1.43-2.67a34.67,34.67,0,0,0,2.17-4.41c0-.08.11-.33.21-.67,1.12-3.74,1.33-4,1.77-4l12.48-1.41a.49.49,0,0,1,.41.14.52.52,0,0,1,.14.41L311,148.43c-.71,6.69-1.93,13.52-8.28,17.17A14.44,14.44,0,0,1,295.46,167.51Zm-4.08-1.63a13.62,13.62,0,0,0,10.81-1.14c5.94-3.42,7.1-10,7.78-16.42l1.45-13.74-11.67,1.32a33.76,33.76,0,0,0-1.11,3.31c-.12.38-.2.66-.23.74a34.18,34.18,0,0,1-2.24,4.54c-.47.86-1,1.74-1.4,2.63a85.22,85.22,0,0,1-9.15,14.68,12.07,12.07,0,0,0,7.6-3.83.52.52,0,0,1,.63-.09.5.5,0,0,1,.21.6Zm8.12-30.45h0Z" fill="#231f20"></path><path d="M303.36,162.15l-2.24,9.75s-1.18,6.11,5.33,5.55a13,13,0,0,0,9.58-5.74L318.65,154c.12-.75,1.18-8.08,2.52-14.51-7.49-1.54-14.08-3.44-14.08-3.44.59.87-2.1.48-2.1.48a11.47,11.47,0,0,0-3.65-.13c-1.25,4.24-3.29,8.75-4,13.06a44.34,44.34,0,0,0-.68,7.8C296.74,162.22,303.36,162.15,303.36,162.15Z" fill="#fff"></path><path d="M305.63,177.94a5,5,0,0,1-3.87-1.45,5.94,5.94,0,0,1-1.09-4.68l2.11-9.21c-2.53-.14-6.51-1.37-6.58-5.35a42.15,42.15,0,0,1,.68-7.87,52.08,52.08,0,0,1,2.48-8.52c.54-1.52,1.1-3.1,1.54-4.6a.45.45,0,0,1,.37-.32,12.1,12.1,0,0,1,3.8.13,6.26,6.26,0,0,0,1.58.05.42.42,0,0,1,.08-.33.45.45,0,0,1,.49-.19c.06,0,6.66,1.92,14,3.43a.5.5,0,0,1,.29.2.45.45,0,0,1,.07.34c-1.17,5.61-2.14,11.93-2.5,14.39,0,.1-2.63,17.82-2.63,17.82a.49.49,0,0,1-.06.17,13.35,13.35,0,0,1-9.94,6A8.51,8.51,0,0,1,305.63,177.94Zm-2.28-16.24a.46.46,0,0,1,.36.17.45.45,0,0,1,.09.39L301.56,172s-.44,2.42.88,3.88c.81.9,2.15,1.27,4,1.11a12.67,12.67,0,0,0,9.19-5.44c.2-1.39,2.59-17.58,2.6-17.63.37-2.49,1.3-8.57,2.43-14.09-6-1.25-11.41-2.72-13.11-3.19l-.07.08c-.47.5-2,.36-2.53.24h0a11.4,11.4,0,0,0-3.23-.16c-.43,1.43-1,2.91-1.46,4.35a51.75,51.75,0,0,0-2.45,8.37,42.11,42.11,0,0,0-.67,7.71c.08,4.46,6,4.45,6.24,4.46Z" fill="#231f20"></path><path d="M307,147s-4.19,4.27-3.57,5.26,2.9.85,2.9.85" fill="#fff"></path><path d="M306,153.64c-.76,0-2.37-.12-3-1.09s1.6-3.8,3.64-5.88a.48.48,0,0,1,.7,0,.49.49,0,0,1,0,.7c-1.95,2-3.58,4.18-3.49,4.68.33.53,1.78.62,2.42.58a.5.5,0,0,1,.54.46.49.49,0,0,1-.47.53Z" fill="#231f20"></path><ellipse cx="303.38" cy="145.21" rx="1.07" ry="0.57" transform="translate(93.9 408.35) rotate(-77.06)" fill="#231f20"></ellipse><ellipse cx="311.35" cy="147.45" rx="1.07" ry="0.57" transform="translate(97.9 417.86) rotate(-77.06)" fill="#231f20"></ellipse><path d="M305.19,142.72l1.05-2,.75,2.4,6.28,1.86,1.74-2.6-.18,3.52,3.31.34c-.87-.09-4.77,15.53-5.15,16.82-.69,2.34-1.52,4.88-3.55,6.24,2.18.82,4.6-.36,6.48-1.74a27.68,27.68,0,0,0,6.34-6.44l-1.8,9.72a6,6,0,0,0,4.79-1.57,12.47,12.47,0,0,0,2.94-4.25c2.89-6.21,2.21-12,2.41-18.54.25-7.66-.21-14.15-9.29-17.67s-15.65-2.41-20.41,1.74a14.08,14.08,0,0,0-4.59,10.16S303.29,142.54,305.19,142.72Z" fill="#fff"></path><path d="M321.2,171.37a5.46,5.46,0,0,1-.82-.06.47.47,0,0,1-.33-.21.52.52,0,0,1-.09-.38l1.43-7.66a28.82,28.82,0,0,1-5.17,4.88c-2.65,1.93-5,2.54-7,1.79a.49.49,0,0,1-.32-.41.5.5,0,0,1,.22-.47c1.83-1.22,2.63-3.52,3.35-6,.07-.23.25-.93.51-1.91,2.42-9.24,3.56-12.91,4.23-14.36l-2.47-.25a.5.5,0,0,1-.45-.52l.09-1.71-.73,1.09a.51.51,0,0,1-.56.2l-6.28-1.86a.51.51,0,0,1-.34-.33l-.39-1.24-.49.95a.51.51,0,0,1-.49.27c-1.92-.18-8.68-2-9-2.06a.47.47,0,0,1-.37-.47,14.43,14.43,0,0,1,4.76-10.54c5.24-4.57,12.27-5.19,20.92-1.84,9.31,3.61,9.86,10.36,9.61,18.15,0,1.3,0,2.56-.05,3.81,0,5.07,0,9.86-2.4,14.93a13.44,13.44,0,0,1-3.07,4.42A6.8,6.8,0,0,1,321.2,171.37Zm-.15-1a5.85,5.85,0,0,0,3.87-1.51,11.88,11.88,0,0,0,2.82-4.08c2.27-4.88,2.29-9.56,2.31-14.52,0-1.25,0-2.53.05-3.83.25-7.67-.26-13.81-9-17.18-8.39-3.25-14.9-2.71-19.9,1.65a13.69,13.69,0,0,0-4.42,9.4c1.39.36,6.2,1.61,8.09,1.88l.9-1.72a.5.5,0,0,1,.48-.27.51.51,0,0,1,.44.35l.67,2.15,5.67,1.68,1.54-2.3a.49.49,0,0,1,.57-.2.52.52,0,0,1,.34.51l-.16,3,2.8.29h0a.51.51,0,0,1,.15,1c-.82,1.1-3.48,11.21-4.36,14.57-.26,1-.44,1.7-.51,1.93-.67,2.25-1.4,4.39-2.93,5.85,1.45.15,3.16-.48,5.09-1.89a27.28,27.28,0,0,0,6.22-6.33.51.51,0,0,1,.61-.17.49.49,0,0,1,.29.55Zm-3-23.66Z" fill="#231f20"></path><path d="M303.36,162.15s5.22-.13,7.44-1.49c0,0-3.2,6.82-9.16,9Z" fill="#231f20"></path><path d="M301.64,170.12a.5.5,0,0,1-.33-.12.5.5,0,0,1-.16-.49l1.72-7.47a.49.49,0,0,1,.47-.38c.05,0,5.12-.15,7.2-1.42a.48.48,0,0,1,.59,0,.49.49,0,0,1,.12.58c-.13.29-3.36,7-9.44,9.22A.51.51,0,0,1,301.64,170.12Zm2.12-7.48-1.42,6.16c3.68-1.69,6.18-5.21,7.31-7.09A25,25,0,0,1,303.76,162.64Z" fill="#231f20"></path><path d="M302.94,159.45h-.14c-.51-.07-.85-.49-1-1.24l-.63-2.78a.5.5,0,0,1,.13-.46.52.52,0,0,1,.46-.14l3.95.8a.49.49,0,0,1,.36.28.51.51,0,0,1,0,.45C305.49,157.31,304.13,159.45,302.94,159.45ZM302.3,156l.45,2c.1.4.21.48.21.48h0c.28,0,1.07-.83,1.83-2Z" fill="#231f20"></path></g></svg>